<svg clip-rule="evenodd" fill-rule="evenodd" image-rendering="optimizeQuality" shape-rendering="geometricPrecision" text-rendering="geometricPrecision" viewBox="0 0 1.10068 1.10068" xmlns="http://www.w3.org/2000/svg" xmlns:xlink="http://www.w3.org/1999/xlink"><clipPath id="id0"><path d="m.55034.38906c.04687.0381.07683.09618.07683.16128s-.02996.12318-.07683.16128c-.04687-.0381-.07683-.09618-.07683-.16128s.02996-.12318.07683-.16128z"/></clipPath><g id="&#x56FE;&#x5C42;_x0020_1"><circle cx=".55" cy=".55" fill="none" r=".55"/><g id="_289893376"><circle id="_289506944" cx=".419" cy=".55" fill="#ff6041" r=".208"/><circle id="_289506128" cx=".681" cy=".55" fill="#ffd941" r=".208"/><path id="_289890808" d="m.55034.38906c.04687.0381.07683.09618.07683.16128s-.02996.12318-.07683.16128c-.04687-.0381-.07683-.09618-.07683-.16128s.02996-.12318.07683-.16128z" fill="#ffd941"/><g clip-path="url(#id0)"><g><g fill="#ff6041"><path id="_213036096" d="m.435.43h.248v.027h-.248z"/><path id="_213035640" d="m.435.483h.248v.027h-.248z"/><path id="_213037800" d="m.435.537h.248v.027h-.248z"/><path id="_213037584" d="m.435.59h.248v.027h-.248z"/><path id="_213037344" d="m.435.643h.248v.027h-.248z"/></g></g></g><path d="m.55034.38906c.04687.0381.07683.09618.07683.16128s-.02996.12318-.07683.16128c-.04687-.0381-.07683-.09618-.07683-.16128s.02996-.12318.07683-.16128z" fill="none"/></g></g></svg>